<svg width="40" height="40" viewBox="0 0 40 40" fill="none" xmlns="http://www.w3.org/2000/svg">
<circle cx="20" cy="20" r="20" fill="#CC1433"/>
<path d="M21.8792 29.6679C21.8717 29.6638 21.8641 29.6599 21.8563 29.6563C21.2925 29.3709 20.8766 28.8594 20.7123 28.2493L20.3672 26.9614C20.3037 26.7244 20.06 26.5837 19.8229 26.6472C19.5858 26.7107 19.4451 26.9544 19.5086 27.1915L19.8537 28.4794C20.0839 29.3334 20.6659 30.0493 21.4549 30.449C21.6706 30.5662 21.9404 30.4863 22.0576 30.2706C22.1748 30.0549 22.0949 29.7851 21.8792 29.6679Z" fill="white"/>
<path d="M21.6386 12.8171C21.8757 12.7536 22.0164 12.5098 21.9529 12.2728L20.3424 6.26256C20.2789 6.02548 20.0352 5.88476 19.7981 5.94829L17.2223 6.63847C14.6164 7.34001 13.0699 10.0185 13.7653 12.6261L18.1365 28.9395C18.838 31.5455 21.5166 33.0919 24.1241 32.3965L26.6999 31.7063C26.937 31.6428 27.0777 31.3991 27.0142 31.162L25.4038 25.1518C25.3403 24.9147 25.0965 24.774 24.8595 24.8375L22.713 25.4127L19.4921 13.3922L21.6386 12.8171ZM17.8817 7.38204L19.5989 6.92192L20.9792 12.0735L19.262 12.5336L17.8817 7.38204ZM23.4585 31.6293C21.4448 31.9319 19.5245 30.6757 18.9951 28.7095L14.6239 12.3961C14.0993 10.4285 15.1342 8.3805 17.0294 7.63571L23.4585 31.6293ZM24.6602 25.8111L26.0406 30.9627L24.3234 31.4229L22.943 26.2713L24.6602 25.8111Z" fill="white"/>
<path d="M19.3692 24.9282L19.3649 24.9293C19.1301 24.9948 18.9919 25.2371 19.0549 25.4725C19.1185 25.7096 19.3622 25.8503 19.5993 25.7868C19.8364 25.7233 19.9771 25.4795 19.9135 25.2425C19.85 25.0054 19.6063 24.8647 19.3692 24.9282Z" fill="white"/>
</svg>
