<svg width="88" height="88" viewBox="0 0 88 88" fill="none" xmlns="http://www.w3.org/2000/svg">
<g clip-path="url(#clip0)">
<path d="M72.3584 19.2466C72.3584 17.7128 71.115 16.4695 69.5812 16.4695H60.0107C56.4806 16.4695 53.619 19.3312 53.619 22.8612V29.9577H76.1673V22.9619C76.1673 21.4281 74.924 20.1847 73.3901 20.1847H73.2966C72.7783 20.1846 72.3584 19.7647 72.3584 19.2466Z" fill="#F8E837"/>
<path d="M81.1848 49.795L72.0483 47.1125H57.7453L48.6054 49.7952C45.3291 50.7568 43.0787 53.7626 43.0787 57.177V71.7775H86.7109V57.1767C86.7109 53.7626 84.4607 50.7566 81.1848 49.795Z" fill="#4A80AA"/>
<path d="M81.1848 49.795L72.0482 47.1125H61.2332L61.2253 49.7452L70.3618 52.4274C73.6377 53.3893 75.8879 56.395 75.8879 59.8091V71.7773H86.7109V57.1765C86.7109 53.7626 84.4607 50.7566 81.1848 49.795Z" fill="#407093"/>
<path d="M70.0646 71.7771L66.7077 56.8096H63.0714L59.7147 71.7771H70.0646Z" fill="#CC1433"/>
<path d="M69.9127 49.637V41.5684H59.8732V49.637C59.8732 52.4094 64.8929 52.6557 64.8929 52.6557C64.8929 52.6557 69.9127 52.4094 69.9127 49.637Z" fill="#FFDDCE"/>
<path d="M76.167 29.0268H74.2481C73.1807 29.0268 72.3155 28.1616 72.3155 27.0942V26.0367C72.3155 24.6464 70.9553 23.6634 69.6353 24.0996C66.5567 25.1171 63.2326 25.1173 60.1538 24.1003L60.1502 24.0991C58.8302 23.6631 57.4703 24.646 57.4703 26.0362V27.0942C57.4703 28.1616 56.6051 29.0268 55.5378 29.0268H53.6188V32.1869C53.6188 32.9944 54.2734 33.649 55.0809 33.649C55.3356 33.649 55.5429 33.8486 55.5591 34.1029C55.8674 38.9911 59.9271 42.8607 64.8929 42.8607C69.8587 42.8607 73.9186 38.9911 74.2268 34.1029C74.2427 33.8487 74.4502 33.649 74.7049 33.649C75.5124 33.649 76.167 32.9944 76.167 32.1869V29.0268Z" fill="#FFDDCE"/>
<path d="M73.3898 20.1847H73.2962C72.7782 20.1847 72.3583 19.7648 72.3583 19.2466C72.3583 17.7128 71.115 16.4695 69.5812 16.4695H65.2936V29.9577H76.1673V22.9619C76.1671 21.4283 74.9236 20.1847 73.3898 20.1847Z" fill="#E6D412"/>
<path d="M74.248 29.0267C73.1807 29.0267 72.3155 28.1614 72.3155 27.0943V26.0367C72.3155 24.6464 70.9553 23.6635 69.6353 24.0997C68.2238 24.5662 66.7608 24.8162 65.2934 24.8551V35.1966C65.2934 35.8893 65.232 36.5823 65.0782 37.2576C64.6127 39.2988 63.479 41.0847 61.9207 42.376C62.8546 42.689 63.8534 42.8605 64.8929 42.8605C69.8587 42.8605 73.9186 38.9909 74.2267 34.1028C74.2427 33.8486 74.4502 33.6489 74.7049 33.6489C75.5124 33.6489 76.167 32.9942 76.167 32.1868V29.0267H74.248Z" fill="#FFCBBE"/>
<path d="M57.9161 46.5774L56.4865 47.2192C55.6704 47.5857 55.4734 48.6554 56.1054 49.2884L60.0647 53.2539C60.567 53.7429 61.3574 53.773 61.8954 53.3237L65.0001 50.7303L59.7071 46.7749C59.1902 46.3889 58.5046 46.3133 57.9161 46.5774Z" fill="#365E7D"/>
<path d="M70.0762 46.7998L65.0002 50.7303L67.9183 53.2252C68.4528 53.6824 69.247 53.6594 69.7542 53.1721L73.7156 49.3145C74.3631 48.6841 74.1695 47.599 73.344 47.2312L71.8867 46.5819C71.2889 46.3155 70.5933 46.3992 70.0762 46.7998Z" fill="#365E7D"/>
<path d="M83.1425 86.6303H21.5991V68.4661H86.711V83.0619C86.711 85.0326 85.1134 86.6303 83.1425 86.6303Z" fill="#DDB7A0"/>
<path d="M75.8232 68.4661V84.7499C75.8232 85.7883 74.9813 86.6303 73.9427 86.6303H83.1425C85.1132 86.6303 86.7109 85.0328 86.7109 83.0619V68.4661H75.8232Z" fill="#D6A889"/>
<path d="M27.3852 63.6375V55.7908H17.6216V63.6375C17.6216 66.3336 22.5034 66.5733 22.5034 66.5733C22.5034 66.5733 27.3852 66.3338 27.3852 63.6375Z" fill="#FFDDCE"/>
<path d="M36.4629 48.6691C35.8244 46.5391 35.4998 44.3272 35.4991 42.1035V42.098C35.4968 34.9234 29.6801 29.1084 22.5053 29.1084C15.3307 29.1084 9.5138 34.9234 9.51157 42.098V42.1035C9.51088 44.3272 9.18621 46.5391 8.54769 48.6691C8.15925 49.9647 7.96177 51.31 7.96143 52.6625C7.96057 55.1084 9.5095 57.2866 11.8202 58.0888C18.7411 60.4916 26.2697 60.4916 33.1906 58.0888C35.5013 57.2864 37.0502 55.1084 37.0494 52.6625C37.0489 51.31 36.8514 49.9647 36.4629 48.6691Z" fill="#407093"/>
<path d="M36.4629 48.6691C35.8244 46.5389 35.4997 44.3272 35.499 42.1035V42.098C35.4968 34.9234 29.68 29.1084 22.5053 29.1084C20.5636 29.1084 18.723 29.5374 17.0685 30.3009C21.5273 32.3586 24.6238 36.8651 24.6254 42.098V42.1035C24.626 44.3272 24.9507 46.5391 25.5892 48.6691C25.9777 49.9647 26.1752 51.31 26.1755 52.6625C26.1764 55.1084 24.6274 57.2866 22.3167 58.0888C20.5985 58.6853 18.8428 59.1334 17.0684 59.4337C22.4415 60.3431 27.9878 59.895 33.1904 58.0888C35.5011 57.2864 37.05 55.1084 37.0492 52.6625C37.0488 51.31 36.8513 49.9647 36.4629 48.6691Z" fill="#365E7D"/>
<path d="M10.974 1.29077H44.2312C46.3196 1.29077 48.0128 2.98391 48.0128 5.07237V19.3409C48.0128 21.1604 46.7276 22.6792 45.0158 23.0403C44.7652 23.0933 44.5895 23.3203 44.5895 23.5766V28.4728C44.5895 29.0671 43.8709 29.3648 43.4505 28.9446L37.79 23.2841C37.6867 23.1808 37.5464 23.1227 37.4003 23.1227H10.974C8.88558 23.1227 7.19244 21.4295 7.19244 19.3411V5.07237C7.19244 2.98391 8.88558 1.29077 10.974 1.29077Z" fill="#B2E5FB"/>
<path d="M44.2311 1.29077H33.2676C35.356 1.29077 37.0492 2.98391 37.0492 5.07237V19.3409C37.0492 21.1604 35.7641 22.6792 34.0522 23.0403C33.9827 23.055 33.9198 23.0842 33.864 23.1225H37.4003C37.5464 23.1225 37.6867 23.1806 37.79 23.2839L43.4505 28.9444C43.8707 29.3647 44.5895 29.067 44.5895 28.4726V23.5764C44.5895 23.3203 44.765 23.0931 45.0156 23.0402C46.7275 22.6789 48.0126 21.1602 48.0126 19.3407V5.07237C48.0127 2.98391 46.3196 1.29077 44.2311 1.29077Z" fill="#9BCEE3"/>
<path d="M38.3474 63.7912L27.3852 61.704C25.6181 66.0978 19.3973 66.0957 17.6332 61.7009L17.6217 61.6724L6.66359 63.7916C3.47755 64.7268 1.28906 67.6498 1.28906 70.9705V83.1406C1.28906 85.1142 2.89111 86.713 4.86475 86.7089L42.1018 86.6334C42.9969 86.6315 43.7216 85.9055 43.7216 85.0104V70.9699C43.7216 67.6497 41.5333 64.7266 38.3474 63.7912Z" fill="#CC1433"/>
<path d="M42.1112 86.643C43.0026 86.6359 43.7215 85.9113 43.7215 85.02V70.9701C43.7215 67.6498 41.5332 64.7267 38.3473 63.7914L27.3851 61.7041C26.506 63.89 24.5248 64.9869 22.5381 64.9972C22.7368 66.5561 23.9141 67.8402 25.4921 68.1406L27.4736 68.5179C30.9802 69.2711 32.8478 70.874 32.8478 74.1944V86.7164L42.1112 86.643Z" fill="#A10C25"/>
<path d="M67.9183 53.2252L65.0002 50.7302L61.8956 53.3236C61.6956 53.4907 61.4604 53.5913 61.2183 53.6268L63.0716 56.8098H66.708L68.5405 53.5258C68.317 53.4816 68.1022 53.3826 67.9183 53.2252Z" fill="#CC1433"/>
<path d="M10.9742 24.4117H37.0947L42.5392 29.8562C42.9146 30.2314 43.4125 30.4301 43.9205 30.4301C44.173 30.4301 44.4277 30.3811 44.6711 30.2802C45.4049 29.9764 45.8787 29.2669 45.8787 28.473V24.1367C47.8946 23.4425 49.3019 21.5153 49.3019 19.3411V5.07236C49.3019 2.2763 47.0274 0.00170898 44.2313 0.00170898H10.9742C8.1781 0.00170898 5.9035 2.2763 5.9035 5.07236V6.11427C5.9035 6.82635 6.48049 7.40333 7.19257 7.40333C7.90464 7.40333 8.48163 6.82635 8.48163 6.11427V5.07236C8.48163 3.69805 9.59985 2.57983 10.9742 2.57983H44.2313C45.6056 2.57983 46.7238 3.69805 46.7238 5.07236V19.3411C46.7238 20.5124 45.8937 21.5378 44.75 21.7793C43.9101 21.9563 43.3006 22.7124 43.3006 23.5769V26.9716L38.7022 22.3735C38.3549 22.0254 37.8924 21.8336 37.4005 21.8336H10.9742C9.59985 21.8336 8.48163 20.7154 8.48163 19.3411V12.1514C8.48163 11.4393 7.90464 10.8623 7.19257 10.8623C6.48049 10.8623 5.9035 11.4393 5.9035 12.1514V19.3411C5.9035 22.137 8.1781 24.4117 10.9742 24.4117Z" fill="black"/>
<path d="M86.7109 59.4584C87.423 59.4584 88 58.8814 88 58.1693V57.1769C88 53.2178 85.3468 49.6739 81.548 48.5584L74.5589 46.5064C74.3574 46.3218 74.1252 46.1683 73.8686 46.054L72.4111 45.4047C72.0228 45.2318 71.6115 45.1441 71.2018 45.139V42.0717C73.4865 40.3852 75.0819 37.8057 75.4523 34.8352C76.6074 34.5088 77.4562 33.4453 77.4562 32.1873V22.9624C77.4562 20.802 75.7625 19.0296 73.633 18.9034C73.4578 16.8215 71.7075 15.1812 69.581 15.1812H60.0105C55.7752 15.1812 52.3298 18.6267 52.3298 22.8619V32.1873C52.3298 33.4454 53.1785 34.509 54.3336 34.8354C54.7045 37.8056 56.2997 40.3849 58.5841 42.0713V45.1338C58.178 45.1415 57.771 45.2301 57.388 45.4019L55.9585 46.0437C55.7042 46.158 55.4737 46.311 55.2736 46.4949L48.2422 48.5586C44.4431 49.6735 41.7895 53.2178 41.7895 57.1774V64.1777C40.8932 63.4452 39.8499 62.8894 38.7104 62.5549C38.5971 62.5217 39.2576 62.6551 28.6741 60.6378V60.6099C30.3462 60.3021 31.9981 59.8678 33.6131 59.3071C37.192 58.0646 39.5215 54.3831 37.6977 48.2996C37.0946 46.288 36.7886 44.2033 36.788 42.0982C36.7855 34.2249 30.3784 27.8198 22.5051 27.8198H22.505C14.6319 27.8198 8.22473 34.2251 8.22216 42.1037C8.22147 44.2036 7.91553 46.2883 7.31259 48.2996C5.50773 54.3216 7.76497 58.0461 11.397 59.3071C13.0108 59.8674 14.6613 60.3014 16.3321 60.6093C5.79408 62.6492 6.41094 62.5227 6.30042 62.5552C2.59084 63.6437 0 67.1042 0 70.9706V83.1409C0 85.8321 2.17955 87.9984 4.85753 87.9984H4.8675C4.88967 87.9984 83.1205 87.9197 83.1426 87.9197C85.8211 87.9197 88.0002 85.7406 88.0002 83.0621V64.1956C88.0002 63.4835 87.4232 62.9065 86.7111 62.9065C85.999 62.9065 85.4221 63.4835 85.4221 64.1956V67.1773H70.3543L68.0737 57.0085L69.3076 54.7971C69.7972 54.7024 70.2661 54.4682 70.6537 54.0959L74.6151 50.2383C74.8691 49.991 75.0649 49.6985 75.1965 49.3807L80.822 51.0322C83.5302 51.8273 85.4219 54.3542 85.4219 57.1769V58.1693C85.4219 58.8814 85.9989 59.4584 86.7109 59.4584ZM54.9079 22.8617C54.9079 20.0481 57.1969 17.7591 60.0105 17.7591H69.581C70.4015 17.7591 71.0693 18.4267 71.0693 19.2472C71.0693 20.4752 72.0682 21.4742 73.2963 21.4742H73.3898C74.2103 21.4742 74.878 22.1417 74.878 22.9623V27.7378H74.2479C73.8932 27.7378 73.6046 27.4492 73.6046 27.0945V26.0369C73.6046 23.7593 71.3682 22.1698 69.2309 22.876C66.4345 23.8002 63.3547 23.8003 60.5547 22.8755C58.3983 22.1627 56.1815 23.7658 56.1815 26.0366V27.0945C56.1815 27.4492 55.8927 27.7378 55.538 27.7378H54.908V22.8617H54.9079ZM56.8456 34.0216C56.7865 33.09 56.0113 32.3602 55.0808 32.3602C54.9852 32.3602 54.9077 32.2825 54.9077 32.1872V30.3159H55.5376C57.3141 30.3159 58.7593 28.8708 58.7593 27.0945V26.0366C58.7593 25.5261 59.2549 25.1618 59.7494 25.3245C63.0676 26.4209 66.722 26.4206 70.0399 25.3238C70.5263 25.1623 71.0263 25.5244 71.0263 26.0368V27.0943C71.0263 28.8707 72.4714 30.3158 74.2478 30.3158H74.8779V32.187C74.8779 32.2824 74.8002 32.3601 74.7046 32.3601C73.7742 32.3601 72.9991 33.0898 72.94 34.0219C72.673 38.2554 69.1383 41.5717 64.8926 41.5717C60.6473 41.5719 57.1127 38.2555 56.8456 34.0216ZM65.951 55.5212H63.8125L62.9826 54.0957L64.9906 52.4184L66.813 53.9766L65.951 55.5212ZM67.7117 67.1773H62.0675L64.1034 58.0994H65.6757L67.7117 67.1773ZM64.9863 49.111L61.1624 46.2536V43.4733C62.326 43.9109 63.584 44.1498 64.893 44.1498C66.2021 44.1498 67.4601 43.9109 68.6237 43.4733V46.2943L64.9863 49.111ZM58.4442 47.7537C58.6054 47.681 58.7935 47.702 58.9354 47.8078C60.2145 48.7636 61.0708 49.4035 62.9219 50.7868L61.0691 52.3345C61.0598 52.3422 61.0491 52.3474 61.0381 52.3503C61.0326 52.351 61.0271 52.3519 61.0216 52.3527C61.0019 52.3534 60.9821 52.3469 60.9666 52.3331L57.029 48.3893L58.4442 47.7537ZM12.2428 56.8715C8.98425 55.74 8.79553 52.3306 9.78261 49.0397C10.4574 46.7883 10.7999 44.4549 10.8006 42.0988C10.8029 35.6468 16.0535 30.3978 22.5055 30.3978C28.9575 30.3978 34.2081 35.6468 34.2102 42.1042C34.2109 44.4546 34.5534 46.7879 35.2284 49.0397C36.2153 52.3314 36.0264 55.7402 32.768 56.8715C26.1501 59.1689 18.8607 59.1693 12.2428 56.8715ZM26.0961 60.9829V61.4387C24.6838 64.4775 20.3027 64.4648 18.9109 61.4111V60.9827C21.2709 61.2323 23.679 61.2385 26.0961 60.9829ZM42.4325 85.0109C42.4325 85.1896 42.2921 85.3354 42.1128 85.3426C42.1083 85.3428 42.1039 85.3429 42.0994 85.3433C42.0985 85.3433 42.0977 85.3433 42.0968 85.3434C42.0874 85.3438 42.0776 85.3443 42.0674 85.345L4.86217 85.4203H4.8577C3.6025 85.4203 2.57812 84.4048 2.57812 83.1409V70.9706C2.57812 68.2601 4.38161 65.832 6.97125 65.0452L16.9013 63.1246C19.3997 67.3459 25.6001 67.3332 28.1017 63.1528L38.0418 65.0454C40.7043 65.8551 42.4325 68.3034 42.4325 70.9702V85.0109ZM44.3678 57.1773C44.3678 54.3542 46.2596 51.8273 48.9686 51.0322L54.6384 49.3681C54.7654 49.6747 54.9522 49.958 55.1935 50.1995L59.1528 54.1648C59.1571 54.1691 59.1616 54.1734 59.1659 54.1777C59.5348 54.5367 59.9815 54.7686 60.4512 54.8716L61.703 57.0214L59.4254 67.1769H44.3678V57.1773ZM85.4219 69.7554V83.0621C85.4219 84.3189 84.3994 85.3416 83.1425 85.3416H44.9922C45.0044 85.2331 45.0106 85.1228 45.0106 85.0109V70.9704C45.0106 70.5625 44.9823 70.1569 44.9261 69.7556C50.5844 69.7554 76.5103 69.7554 85.4219 69.7554ZM68.8612 52.2427C68.8459 52.2573 68.8267 52.2647 68.8072 52.2647C68.7971 52.2627 68.787 52.2606 68.7768 52.2587C68.7694 52.2556 68.7624 52.2515 68.7558 52.246L67.0416 50.7802L70.8653 47.8195C71.0072 47.7092 71.1977 47.6865 71.3618 47.7595L72.8047 48.4025L68.8612 52.2427Z" fill="black"/>
</g>
<defs>
<clipPath id="clip0">
<rect width="88" height="88" fill="white"/>
</clipPath>
</defs>
</svg>
