<svg width="96" height="102" viewBox="0 0 96 102" fill="none" xmlns="http://www.w3.org/2000/svg">
<path d="M17.9991 20.7853V93.9051C17.9991 97.5506 20.9543 100.506 24.5998 100.506H87.3077C90.9532 100.506 93.9084 97.5506 93.9084 93.9051V20.7853H17.9991Z" fill="#CC1433" fill-opacity="0.1"/>
<path d="M89.3262 20.7853V93.9051C89.3262 97.5506 86.371 100.506 82.7255 100.506H87.3075C90.953 100.506 93.9082 97.5506 93.9082 93.9051V20.7853H89.3262Z" fill="#CC1433" fill-opacity="0.1"/>
<path d="M41.6069 78.4745L15.8475 52.7151L6.51251 62.0501L32.2719 87.8095C32.5707 88.1083 32.9761 88.2762 33.3989 88.2762H34.8215L42.0737 81.0241V79.6012C42.0737 79.1789 41.9057 78.7735 41.6069 78.4745Z" fill="#B2E5FB"/>
<path d="M41.6068 78.4745L15.8475 52.7151L13.561 55.0015L40.2177 81.6582C40.4362 81.8767 40.5839 82.1524 40.6478 82.4499L42.0734 81.0243V79.6014C42.0736 79.1789 41.9057 78.7735 41.6068 78.4745Z" fill="#9BCEE3"/>
<path d="M42.0736 86.6825V79.6014C42.0736 79.409 42.0372 79.2207 41.971 79.0438L32.8412 88.1736C33.0182 88.2398 33.2064 88.2762 33.3989 88.2762H40.4799C41.36 88.2762 42.0736 87.5628 42.0736 86.6825Z" fill="#CC1433" fill-opacity="0.1"/>
<path d="M7.12609 48.6611L2.45859 53.3286C1.16965 54.6176 1.16965 56.7072 2.45859 57.9961L7.12609 62.6636L16.4611 53.3286L11.7936 48.6611C10.5046 47.3724 8.41503 47.3724 7.12609 48.6611Z" fill="#CC1433"/>
<path d="M7.17352 48.6183C7.18906 48.6332 7.2058 48.646 7.22094 48.6611L14.1747 55.6149L16.4609 53.3286L11.7936 48.6611C10.52 47.3875 8.46566 47.3748 7.17352 48.6183Z" fill="#AD0723"/>
<path d="M87.3074 8.09509H24.5996C20.9541 8.09509 17.9988 11.0503 17.9988 14.6958V24.5972H93.908V14.6956C93.9081 11.0503 90.9529 8.09509 87.3074 8.09509Z" fill="#CC1433"/>
<path d="M87.3075 8.09509H82.7255C86.371 8.09509 89.3262 11.0503 89.3262 14.6958V24.5972H93.9082V14.6956C93.9082 11.0503 90.953 8.09509 87.3075 8.09509Z" fill="#AD0723"/>
<path d="M27.9002 11.3953C27.9002 13.2182 29.3778 14.6958 31.2007 14.6958C33.0235 14.6958 34.5011 13.2182 34.5011 11.3953V4.7946C34.5011 2.97175 33.0235 1.49414 31.2007 1.49414C29.3778 1.49414 27.9002 2.97175 27.9002 4.7946V11.3953Z" fill="#B2E5FB"/>
<path d="M77.4061 11.3953C77.4061 13.2182 78.8837 14.6958 80.7065 14.6958C82.5294 14.6958 84.007 13.2182 84.007 11.3953V4.7946C84.007 2.97175 82.5294 1.49414 80.7065 1.49414C78.8837 1.49414 77.4061 2.97175 77.4061 4.7946V11.3953Z" fill="#B2E5FB"/>
<path d="M44.4021 11.3953C44.4021 13.2182 45.8797 14.6958 47.7026 14.6958C49.5254 14.6958 51.003 13.2182 51.003 11.3953V4.7946C51.003 2.97175 49.5254 1.49414 47.7026 1.49414C45.8797 1.49414 44.4021 2.97175 44.4021 4.7946V11.3953Z" fill="#B2E5FB"/>
<path d="M60.9042 11.3953C60.9042 13.2182 62.3818 14.6958 64.2046 14.6958C66.0275 14.6958 67.5051 13.2182 67.5051 11.3953V4.7946C67.5051 2.97175 66.0275 1.49414 64.2046 1.49414C62.3818 1.49414 60.9042 2.97175 60.9042 4.7946V11.3953Z" fill="#B2E5FB"/>
<path d="M80.7065 1.49414C79.816 1.49414 79.0092 1.84855 78.4155 2.4219C79.0369 3.02215 79.425 3.86225 79.425 4.7946V11.3953C79.425 12.3275 79.0369 13.1678 78.4155 13.768C79.0092 14.3414 79.816 14.6958 80.7065 14.6958C82.5294 14.6958 84.007 13.2182 84.007 11.3953V4.7946C84.007 2.97175 82.5294 1.49414 80.7065 1.49414Z" fill="#B2E5FB"/>
<path d="M64.2047 1.49414C63.3139 1.49414 62.5073 1.84855 61.9136 2.4219C62.535 3.02215 62.9231 3.86225 62.9231 4.7946V11.3953C62.9231 12.3275 62.535 13.1678 61.9136 13.768C62.5073 14.3414 63.3139 14.6958 64.2047 14.6958C66.0275 14.6958 67.5051 13.2182 67.5051 11.3953V4.7946C67.5051 2.97175 66.0275 1.49414 64.2047 1.49414Z" fill="#B2E5FB"/>
<path d="M47.7028 1.49414C46.8123 1.49414 46.0054 1.84855 45.4117 2.4219C46.0331 3.02215 46.4212 3.86225 46.4212 4.7946V11.3953C46.4212 12.3275 46.0333 13.1678 45.4117 13.768C46.0054 14.3414 46.8123 14.6958 47.7028 14.6958C49.5256 14.6958 51.0032 13.2182 51.0032 11.3953V4.7946C51.0032 2.97175 49.5254 1.49414 47.7028 1.49414Z" fill="#B2E5FB"/>
<path d="M31.2007 1.49414C30.31 1.49414 29.5033 1.84855 28.9097 2.4219C29.531 3.02215 29.9191 3.86225 29.9191 4.7946V11.3953C29.9191 12.3275 29.5312 13.1678 28.9097 13.768C29.5033 14.3414 30.31 14.6958 31.2007 14.6958C33.0235 14.6958 34.5011 13.2182 34.5011 11.3953V4.7946C34.5011 2.97175 33.0235 1.49414 31.2007 1.49414Z" fill="#B2E5FB"/>
<path d="M87.3074 6.60091H85.5011V4.7946C85.5011 2.15077 83.3503 0 80.7065 0C78.0627 0 75.9119 2.15077 75.9119 4.7946V6.60091H68.999V4.7946C68.9992 2.15077 66.8483 0 64.2046 0C61.561 0 59.41 2.15077 59.41 4.7946V6.60091H52.4971V4.7946C52.4971 2.15077 50.3464 0 47.7025 0C45.0587 0 42.9079 2.15077 42.9079 4.7946V6.60091H35.995V4.7946C35.9952 2.15077 33.8443 0 31.2006 0C28.5568 0 26.406 2.15077 26.406 4.7946V6.60091H24.5995C20.136 6.60091 16.5049 10.2323 16.5049 14.6956V51.2596L12.85 47.6047C10.9805 45.7352 7.93907 45.7352 6.0696 47.6047L1.4021 52.2722C-0.467367 54.1415 -0.467367 57.1833 1.4021 59.0526L16.5049 74.1554V93.9051C16.5049 98.3686 20.1362 102 24.5995 102H75.4272C76.2524 102 76.9214 101.331 76.9214 100.506C76.9214 99.6807 76.2524 99.0117 75.4272 99.0117H24.5995C21.7838 99.0117 19.4932 96.7209 19.4932 93.9051V77.1437L31.6822 89.3327C31.7176 89.3681 31.7547 89.4016 31.7931 89.4329C31.8192 89.4542 31.8463 89.4731 31.8734 89.4925C31.8862 89.5014 31.8981 89.5116 31.9111 89.5201C31.9453 89.543 31.9806 89.5634 32.0162 89.5831C32.023 89.5869 32.0294 89.5913 32.0362 89.5948C32.0738 89.615 32.1123 89.6325 32.1509 89.649C32.1567 89.6514 32.1621 89.6546 32.1681 89.657C32.2057 89.6725 32.244 89.6857 32.2824 89.698C32.2904 89.7006 32.2979 89.7038 32.3059 89.7062C32.3422 89.7172 32.3788 89.7257 32.4155 89.7337C32.4264 89.7361 32.437 89.7395 32.448 89.7417C32.4836 89.7486 32.5195 89.7532 32.5555 89.7576C32.5681 89.7592 32.5802 89.7618 32.5928 89.763C32.6412 89.7678 32.69 89.7702 32.7386 89.7702H41.4546L43.3508 91.6663C43.6425 91.958 44.025 92.104 44.4073 92.104C44.7896 92.104 45.1721 91.958 45.4637 91.6663C46.0472 91.0828 46.0472 90.1367 45.4637 89.5532L43.5676 87.6572V78.9416C43.5676 78.8926 43.5652 78.8438 43.5604 78.795C43.5594 78.7842 43.557 78.7739 43.5558 78.7631C43.5512 78.7253 43.5462 78.6876 43.5389 78.6502C43.5369 78.6406 43.5341 78.6312 43.5319 78.6217C43.5235 78.5836 43.5146 78.5456 43.5034 78.5081C43.5014 78.5014 43.4986 78.495 43.4964 78.4882C43.4839 78.4486 43.4701 78.4091 43.4542 78.3703C43.4524 78.3661 43.4502 78.3621 43.4484 78.3579C43.4313 78.3175 43.4128 78.2774 43.392 78.2384C43.3892 78.2332 43.3861 78.2286 43.3833 78.2234C43.3628 78.186 43.3412 78.1491 43.3173 78.1133C43.31 78.1021 43.3012 78.0918 43.2934 78.0808C43.2731 78.0519 43.2528 78.023 43.2303 77.9953C43.1988 77.9569 43.1655 77.9198 43.1301 77.8844L30.9409 65.6952H82.3566C83.1818 65.6952 83.8508 65.0262 83.8508 64.201C83.8508 63.3759 83.1818 62.7069 82.3566 62.7069H29.5503C29.1114 62.7069 28.7178 62.8973 28.4445 63.1988L19.493 54.2475V26.0911H92.4138V36.2813C92.4138 37.1065 93.0828 37.7755 93.9079 37.7755C94.7331 37.7755 95.4021 37.1065 95.4021 36.2813V14.6956C95.4023 10.2321 91.7709 6.60091 87.3074 6.60091ZM40.5795 86.7821H36.3459L40.5795 82.5485V86.7821ZM9.23897 62.6637L11.7934 60.1093L35.293 83.6089L32.7386 86.1633L9.23897 62.6637ZM37.4061 81.4958L13.9065 57.9962L16.461 55.4416L39.9607 78.9412L37.4061 81.4958ZM3.51502 54.3853L8.18251 49.7178C8.88675 49.0136 10.0327 49.0136 10.7369 49.7178L14.3479 53.3289L10.7375 56.9393C10.7373 56.9395 10.7371 56.9397 10.7371 56.9397C10.7369 56.9399 10.7367 56.9401 10.7367 56.9401L7.12605 60.5505L3.51521 56.9397C2.81078 56.2355 2.81078 55.0896 3.51502 54.3853ZM80.7065 2.98828C81.7026 2.98828 82.5128 3.7985 82.5128 4.7946V11.3953C82.5128 12.3914 81.7026 13.2016 80.7065 13.2016C79.7104 13.2016 78.9002 12.3914 78.9002 11.3953V8.09705C78.9002 8.09645 78.9002 8.09585 78.9002 8.09505C78.9002 8.09426 78.9002 8.09386 78.9002 8.09306V4.7946C78.9004 3.7985 79.7106 2.98828 80.7065 2.98828ZM64.2046 2.98828C65.2007 2.98828 66.0109 3.7985 66.0109 4.7946V11.3953C66.0109 12.3914 65.2007 13.2016 64.2046 13.2016C63.2085 13.2016 62.3983 12.3914 62.3983 11.3953V8.09705C62.3983 8.09645 62.3983 8.09585 62.3983 8.09505C62.3983 8.09426 62.3983 8.09386 62.3983 8.09306V4.7946C62.3983 3.7985 63.2085 2.98828 64.2046 2.98828ZM45.8964 4.7946C45.8964 3.7985 46.7066 2.98828 47.7027 2.98828C48.6988 2.98828 49.5091 3.7985 49.5091 4.7946V8.09306V8.09505C49.5091 8.09505 49.5091 8.09625 49.5091 8.09705V11.3953C49.5091 12.3914 48.6988 13.2016 47.7027 13.2016C46.7068 13.2016 45.8964 12.3914 45.8964 11.3953V4.7946ZM31.2006 2.98828C32.1965 2.98828 33.007 3.7985 33.007 4.7946V8.09306C33.007 8.09366 33.0068 8.09426 33.0068 8.09505C33.0068 8.09585 33.007 8.09625 33.007 8.09705V11.3953C33.007 12.3914 32.1967 13.2016 31.2006 13.2016C30.2046 13.2016 29.3943 12.3914 29.3943 11.3953V8.09705C29.3943 8.09645 29.3945 8.09585 29.3945 8.09505C29.3945 8.09426 29.3943 8.09386 29.3943 8.09306V4.7946C29.3943 3.7985 30.2046 2.98828 31.2006 2.98828ZM19.4932 23.1028V14.6956C19.4932 11.8798 21.784 9.5892 24.5995 9.5892H26.406V11.3953C26.406 14.0391 28.5568 16.1899 31.2006 16.1899C33.8443 16.1899 35.9952 14.0391 35.9952 11.3953V9.5892H42.9081V11.3953C42.9081 14.0391 45.0589 16.1899 47.7027 16.1899C50.3466 16.1899 52.4973 14.0391 52.4973 11.3953V9.5892H59.4102V11.3953C59.4102 14.0391 61.561 16.1899 64.2048 16.1899C66.8487 16.1899 68.9994 14.0391 68.9994 11.3953V9.5892H75.9123V11.3953C75.9123 14.0391 78.0631 16.1899 80.7069 16.1899C83.3507 16.1899 85.5015 14.0391 85.5015 11.3953V9.5892H87.3078C90.1236 9.5892 92.4144 11.88 92.4144 14.6956V23.1028H19.4932Z" fill="black"/>
<path d="M93.9081 40.7639C93.0829 40.7639 92.414 41.4329 92.414 42.2581V93.9051C92.414 96.7209 90.1232 99.0117 87.3074 99.0117H81.4037C80.5786 99.0117 79.9096 99.6807 79.9096 100.506C79.9096 101.331 80.5786 102 81.4037 102H87.3074C91.7709 102 95.4023 98.3686 95.4023 93.9051V42.2581C95.4023 41.4329 94.7333 40.7639 93.9081 40.7639Z" fill="black"/>
<path d="M29.5503 35.9923H82.3566C83.1818 35.9923 83.8508 35.3233 83.8508 34.4982C83.8508 33.673 83.1818 33.004 82.3566 33.004H29.5503C28.7251 33.004 28.0562 33.673 28.0562 34.4982C28.0562 35.3233 28.7251 35.9923 29.5503 35.9923Z" fill="black"/>
<path d="M29.5503 45.8934H82.3566C83.1818 45.8934 83.8508 45.2245 83.8508 44.3993C83.8508 43.5741 83.1818 42.9052 82.3566 42.9052H29.5503C28.7251 42.9052 28.0562 43.5741 28.0562 44.3993C28.0562 45.2245 28.7251 45.8934 29.5503 45.8934Z" fill="black"/>
<path d="M29.5503 55.7946H82.3566C83.1818 55.7946 83.8508 55.1256 83.8508 54.3004C83.8508 53.4753 83.1818 52.8063 82.3566 52.8063H29.5503C28.7251 52.8063 28.0562 53.4753 28.0562 54.3004C28.0562 55.1256 28.7251 55.7946 29.5503 55.7946Z" fill="black"/>
<path d="M83.8509 74.1028C83.8509 73.2776 83.182 72.6086 82.3568 72.6086H47.7027C46.8775 72.6086 46.2086 73.2776 46.2086 74.1028C46.2086 74.9279 46.8775 75.5969 47.7027 75.5969H82.3568C83.182 75.5969 83.8509 74.9279 83.8509 74.1028Z" fill="black"/>
</svg>
