<svg width="40" height="40" viewBox="0 0 40 40" fill="none" xmlns="http://www.w3.org/2000/svg">
<circle cx="20" cy="20" r="20" fill="#CC1433"/>
<path d="M29.9167 11.3889H9.08333C7.93333 11.3903 7.00135 12.3222 7 13.4722V25.9722C7.00135 27.1222 7.93333 28.0542 9.08333 28.0556H29.9167C31.0667 28.0542 31.9986 27.1222 32 25.9722V13.4722C31.9986 12.3222 31.0667 11.3903 29.9167 11.3889ZM31.1667 25.9722C31.1667 26.6626 30.607 27.2222 29.9167 27.2222H9.08333C8.39297 27.2222 7.83333 26.6626 7.83333 25.9722V13.4722C7.83333 12.7819 8.39297 12.2222 9.08333 12.2222H29.9167C30.607 12.2222 31.1667 12.7819 31.1667 13.4722V25.9722Z" fill="white"/>
<path d="M30.2737 13.2577C30.1552 13.0605 29.8993 12.9967 29.702 13.1152L20.5716 18.5931C19.9123 18.9902 19.0875 18.9902 18.4283 18.5931L9.29786 13.1152C9.09849 13.0003 8.84369 13.0687 8.72875 13.268C8.61671 13.4623 8.67854 13.7104 8.86869 13.8294L17.9999 19.3077C18.923 19.8626 20.0769 19.8626 20.9999 19.3077L30.1312 13.8294C30.3284 13.7109 30.3922 13.455 30.2737 13.2577Z" fill="white"/>
<path d="M9.08329 14.7222C8.85319 14.7222 8.66663 14.9087 8.66663 15.1388V25.9722C8.66663 26.2023 8.85319 26.3888 9.08329 26.3888C9.3134 26.3888 9.49996 26.2023 9.49996 25.9722V15.1388C9.49996 14.9087 9.3134 14.7222 9.08329 14.7222Z" fill="white"/>
<path d="M29.9167 14.7222C29.6866 14.7222 29.5 14.9087 29.5 15.1388V25.9722C29.5 26.2023 29.6866 26.3888 29.9167 26.3888C30.1468 26.3888 30.3333 26.2023 30.3333 25.9722V15.1388C30.3333 14.9087 30.1468 14.7222 29.9167 14.7222Z" fill="white"/>
</svg>
