<svg width="102" height="102" viewBox="0 0 102 102" fill="none" xmlns="http://www.w3.org/2000/svg">
<g clip-path="url(#clip0)">
<path d="M37.2539 1.49414H64.7461C66.9467 1.49414 68.7305 3.27795 68.7305 5.47852V8.4668L51.6887 10.459L33.2695 8.4668V5.47852C33.2695 3.27795 35.0533 1.49414 37.2539 1.49414Z" fill="#CC1433"/>
<path d="M33.2695 8.4668V5.47852C33.2695 3.27715 35.0525 1.49414 37.2539 1.49414H41.2383C39.0369 1.49414 37.2539 3.27715 37.2539 5.47852V8.4668H33.2695Z" fill="#A10C25"/>
<path d="M72.416 62.8535C79.498 56.5935 85.166 47.8478 85.166 37.6524C85.166 25.2693 78.5782 14.425 68.7163 8.43274L33.2582 8.44828C23.4104 14.4436 16.834 25.2801 16.834 37.6524C16.834 47.8934 22.646 56.5915 29.7832 62.8535H72.416Z" fill="#F9F8F9"/>
<path d="M41.3379 40.9395C45.8054 40.9395 49.427 37.3179 49.427 32.8504C49.427 28.383 45.8054 24.7614 41.3379 24.7614C36.8704 24.7614 33.2488 28.383 33.2488 32.8504C33.2488 37.3179 36.8704 40.9395 41.3379 40.9395Z" fill="#F8E837"/>
<path d="M48.3524 36.8794C46.9579 39.3059 44.3382 40.9395 41.3379 40.9395C36.8714 40.9395 33.2496 37.3177 33.2496 32.8512C33.2496 29.849 34.8832 27.2312 37.3097 25.8347C36.6284 27.0201 36.2379 28.3967 36.2379 29.8629C36.2379 34.3294 39.8597 37.9512 44.3262 37.9512C45.7924 37.9512 47.1671 37.5607 48.3524 36.8794Z" fill="#F3D332"/>
<path d="M60.6621 43.7286C65.1296 43.7286 68.7512 40.107 68.7512 35.6395C68.7512 31.172 65.1296 27.5504 60.6621 27.5504C56.1947 27.5504 52.5731 31.172 52.5731 35.6395C52.5731 40.107 56.1947 43.7286 60.6621 43.7286Z" fill="#DC4955"/>
<path d="M68.1966 38.5927C67.0152 41.5989 64.0867 43.7286 60.6621 43.7286C56.1957 43.7286 52.5739 40.1068 52.5739 35.6403C52.5739 32.2137 54.7035 29.2852 57.7097 28.1058C57.3531 29.0202 57.1559 30.0163 57.1559 31.0583C57.1559 35.5247 60.7777 39.1465 65.2442 39.1465C66.2861 39.1465 67.2822 38.9493 68.1966 38.5927Z" fill="#D82F3C"/>
<path d="M51.4981 49.1075C55.9655 49.1075 59.5872 45.4859 59.5872 41.0184C59.5872 36.5509 55.9655 32.9293 51.4981 32.9293C47.0306 32.9293 43.409 36.5509 43.409 41.0184C43.409 45.4859 47.0306 49.1075 51.4981 49.1075Z" fill="#B2E5FB"/>
<path d="M58.5126 45.0474C57.118 47.4739 54.4983 49.1075 51.4981 49.1075C47.0316 49.1075 43.4098 45.4857 43.4098 41.0192C43.4098 38.0169 45.0434 35.3992 47.4699 34.0027C46.7885 35.188 46.3981 36.5646 46.3981 38.0309C46.3981 42.4974 50.0199 46.1192 54.4864 46.1192C55.9526 46.1192 57.3272 45.7287 58.5126 45.0474Z" fill="#91DAFA"/>
<path d="M48.3106 57.6739C52.778 57.6739 56.3997 54.0523 56.3997 49.5848C56.3997 45.1173 52.778 41.4957 48.3106 41.4957C43.8431 41.4957 40.2215 45.1173 40.2215 49.5848C40.2215 54.0523 43.8431 57.6739 48.3106 57.6739Z" fill="#F8E837"/>
<path d="M56.2634 51.0677C55.5681 54.827 52.271 57.6738 48.3106 57.6738C43.8441 57.6738 40.2223 54.052 40.2223 49.5855C40.2223 47.4758 41.0271 45.5573 42.3499 44.1169C42.2603 44.5971 42.2145 45.0931 42.2145 45.6011C42.2145 50.0676 45.8363 53.6894 50.3028 53.6894C52.6615 53.6894 54.7852 52.6794 56.2634 51.0677Z" fill="#F3D332"/>
<path d="M35.959 52.8926C40.4265 52.8926 44.0481 49.271 44.0481 44.8036C44.0481 40.3361 40.4265 36.7145 35.959 36.7145C31.4915 36.7145 27.8699 40.3361 27.8699 44.8036C27.8699 49.271 31.4915 52.8926 35.959 52.8926Z" fill="#DC4955"/>
<path d="M42.9735 48.8325C41.579 51.259 38.9592 52.8926 35.959 52.8926C31.4925 52.8926 27.8707 49.2708 27.8707 44.8043C27.8707 41.8021 29.5043 39.1844 31.9308 37.7878C31.2495 38.9732 30.859 40.3498 30.859 41.816C30.859 46.2825 34.4808 49.9043 38.9473 49.9043C40.4135 49.9043 41.7882 49.5139 42.9735 48.8325Z" fill="#D82F3C"/>
<path d="M62.8535 57.2754C67.321 57.2754 70.9426 53.6538 70.9426 49.1864C70.9426 44.7189 67.321 41.0973 62.8535 41.0973C58.3861 41.0973 54.7645 44.7189 54.7645 49.1864C54.7645 53.6538 58.3861 57.2754 62.8535 57.2754Z" fill="#DE5791"/>
<path d="M69.868 53.2153C68.4735 55.6418 65.8538 57.2754 62.8535 57.2754C58.3871 57.2754 54.7653 53.6536 54.7653 49.1871C54.7653 46.1849 56.3989 43.5672 58.8253 42.1707C58.144 43.356 57.7535 44.7326 57.7535 46.1989C57.7535 50.6653 61.3753 54.2871 65.8418 54.2871C67.3081 54.2871 68.6827 53.8967 69.868 53.2153Z" fill="#DB387E"/>
<path d="M51.3383 68.83C56.2677 68.83 60.2637 64.834 60.2637 59.9046C60.2637 54.9753 56.2677 50.9792 51.3383 50.9792C46.4089 50.9792 42.4129 54.9753 42.4129 59.9046C42.4129 64.834 46.4089 68.83 51.3383 68.83Z" fill="#B2E5FB"/>
<path d="M58.9648 64.5429C57.3989 67.1128 54.568 68.8301 51.3387 68.8301C46.408 68.8301 42.4137 64.8337 42.4137 59.9051C42.4137 56.6737 44.129 53.8448 46.6989 52.277C45.8761 53.6297 45.402 55.2174 45.402 56.9168C45.402 61.8455 49.3963 65.8418 54.327 65.8418C56.0263 65.8418 57.6141 65.3676 58.9648 64.5429Z" fill="#91DAFA"/>
<path d="M74.5695 58.3511C74.5695 59.4369 74.3544 60.4728 73.9659 61.4191C73.4579 61.9112 72.9419 62.3893 72.416 62.8535H59.7576C58.895 61.5665 58.391 60.0166 58.391 58.3511C58.391 53.8827 62.0128 50.2609 66.4813 50.2609C70.9477 50.2609 74.5695 53.8827 74.5695 58.3511Z" fill="#F8E837"/>
<path d="M66.4813 66.4395C62.0128 66.4395 58.391 62.8177 58.391 58.3512C58.391 55.349 60.0246 52.7312 62.4511 51.3347C61.7697 52.5201 61.3793 53.8967 61.3793 55.3629C61.3793 59.8294 65.0011 63.4512 69.4695 63.4512C70.9358 63.4512 69.4815 66.4395 66.4813 66.4395Z" fill="#F3D332"/>
<path d="M35.959 62.8535L29.7274 62.8037C22.5894 56.5423 16.834 47.8942 16.834 37.6524C16.834 25.2809 23.4102 14.4434 33.2576 8.44889L37.2539 8.4469C29.0481 14.6844 21.416 24.5557 21.416 35.6602C21.416 41.9575 24.217 48.4261 28.0321 53.9285C30.4227 57.375 33.2098 60.441 35.959 62.8535Z" fill="#EFEDEF"/>
<path d="M44.3262 58.3532C44.3262 59.9987 43.87 61.5387 43.0791 62.8535H29.7832C28.8409 62.0268 27.9225 61.1582 27.0399 60.2497C26.9045 59.6401 26.8328 59.0046 26.8328 58.3532C26.8328 53.5221 30.7494 49.6055 35.5785 49.6055C40.4095 49.6055 44.3262 53.5221 44.3262 58.3532Z" fill="#DE5791"/>
<path d="M29.7274 62.8037L35.959 62.8535H29.7832C29.7653 62.8376 29.7453 62.8196 29.7274 62.8037Z" fill="#DE5791"/>
<path d="M34.0457 62.8929H29.7824C28.8401 62.0662 27.9149 61.1619 27.0324 60.2535C26.8969 59.6439 26.832 59.044 26.832 58.3926C26.832 55.211 28.5293 52.426 31.0694 50.8979C30.2765 52.2148 29.8203 53.7547 29.8203 55.4043C29.8203 58.5798 31.5136 61.3589 34.0457 62.8929Z" fill="#DB387E"/>
<path d="M72.416 62.8535H29.7832C28.6829 62.8535 27.791 63.7454 27.791 64.8457V93.5332H74.4082V64.8457C74.4082 63.7454 73.5163 62.8535 72.416 62.8535Z" fill="#CC1433"/>
<path d="M33.7676 89.5488C32.6673 89.5488 31.7754 88.6569 31.7754 87.5566V64.8457C31.7754 63.746 32.6679 62.8535 33.7676 62.8535H29.7832C28.6829 62.8535 27.791 63.7454 27.791 64.8457V89.5488V93.5332H31.7754H74.4082V89.5488H33.7676Z" fill="#A20C25"/>
<path d="M27.6914 93.5332H74.5078C76.7084 93.5332 78.4922 95.317 78.4922 97.5176V98.5137C78.4922 99.614 77.6003 100.506 76.5 100.506H25.6992C24.5989 100.506 23.707 99.614 23.707 98.5137V97.5176C23.707 95.317 25.4908 93.5332 27.6914 93.5332Z" fill="#CC1433"/>
<path d="M29.6836 100.506H25.6992C24.5995 100.506 23.707 99.6134 23.707 98.5137V97.5176C23.707 95.3162 25.49 93.5332 27.6914 93.5332H31.6758C29.4744 93.5332 27.6914 95.3162 27.6914 97.5176V98.5137C27.6914 99.6134 28.5839 100.506 29.6836 100.506Z" fill="#A20C25"/>
<path d="M51.0996 86.1621C46.1484 86.1621 42.1348 82.1484 42.1348 77.1973V74.209C42.1348 73.1087 43.0267 72.2168 44.127 72.2168H58.0723C59.1726 72.2168 60.0645 73.1087 60.0645 74.209V77.1973C60.0645 82.1484 56.0508 86.1621 51.0996 86.1621Z" fill="#B2E5FB"/>
<path d="M53.0918 85.941C52.4503 86.0844 51.7849 86.1621 51.0996 86.1621C46.149 86.1621 42.1348 82.1479 42.1348 77.1973V74.209C42.1348 73.1093 43.0273 72.2168 44.127 72.2168H48.1113C47.0116 72.2168 46.1191 73.1093 46.1191 74.209V77.1973C46.1191 81.4625 49.0995 85.0345 53.0918 85.941Z" fill="#9BCEE3"/>
<path d="M75.9023 92.2196V64.8457C75.9023 63.9448 75.5559 63.1255 74.9931 62.5061C82.5335 55.2252 86.6602 46.4698 86.6602 37.6523C86.6602 33.7277 86.0262 29.8699 84.7763 26.1861C84.5112 25.4048 83.6629 24.9866 82.8812 25.2514C82.0996 25.5165 81.6813 26.365 81.9464 27.1465C83.0913 30.5201 83.6719 34.0549 83.6719 37.6523C83.6719 45.3472 80.2577 51.6905 76.6269 56.263C76.0689 53.7887 74.5395 51.603 72.3772 50.2384C72.4152 49.8894 72.4357 49.5381 72.4357 49.1871C72.4357 46.1066 70.8954 43.2301 68.3025 41.419C69.5508 39.7678 70.2443 37.743 70.2443 35.6402C70.2443 30.3554 65.9458 26.0558 60.6619 26.0558C56.9503 26.0558 53.6219 28.1835 52.0367 31.4582C51.6321 31.4333 51.2253 31.4329 50.8179 31.461C50.1332 26.5849 45.6404 22.8855 40.6052 23.2944C39.7822 23.357 39.166 24.075 39.2288 24.8978C39.2913 25.7207 40.0073 26.3373 40.8321 26.2742C44.3863 25.9853 47.5396 28.6656 47.8936 32.1451C45.3735 33.1829 43.3934 35.2731 42.4758 37.8123C42.0615 37.4226 41.6094 37.07 41.1227 36.761C39.3523 35.637 37.2732 35.195 35.2438 35.3735C34.9153 34.5784 34.7437 33.7202 34.7437 32.8514C34.7437 31.5092 35.144 30.2181 35.901 29.1176C36.3688 28.4377 36.1967 27.5075 35.5169 27.0398C34.8368 26.5718 33.9066 26.7441 33.4391 27.4239C32.3376 29.025 31.7555 30.9018 31.7555 32.8514C31.7555 33.958 31.9509 35.0521 32.3207 36.0853C30.9273 36.6584 29.6553 37.5513 28.6491 38.7455C27.0155 40.6841 26.2409 43.1584 26.4682 45.7125C26.6405 47.6483 27.3719 49.4361 28.5642 50.8928C27.0222 52.3453 25.9841 54.2795 25.5618 56.3405C20.858 50.5294 18.3281 44.0732 18.3281 37.6523C18.3281 26.3007 24.0527 15.9841 33.6602 9.96094H40.8398C41.6652 9.96094 42.334 9.29216 42.334 8.4668C42.334 7.64143 41.6652 6.97266 40.8398 6.97266H34.7637V5.47852C34.7637 4.1053 35.8807 2.98828 37.2539 2.98828H64.7461C66.1193 2.98828 67.2363 4.1053 67.2363 5.47852V6.97266H47.8125C46.9871 6.97266 46.3184 7.64143 46.3184 8.4668C46.3184 9.29216 46.9871 9.96094 47.8125 9.96094H68.3396C72.7629 12.7373 76.4962 16.5648 79.1524 21.0622C79.5745 21.7792 80.5005 22.0045 81.1988 21.5889C81.9092 21.1694 82.1451 20.253 81.7255 19.5426C78.8866 14.7364 74.921 10.6299 70.2246 7.61673V5.47852C70.2246 2.45776 67.7668 0 64.7461 0H37.2539C34.2332 0 31.7754 2.45776 31.7754 5.47852V7.61713C26.9535 10.7106 22.9121 14.9456 20.0575 19.9147C16.971 25.2876 15.3398 31.4212 15.3398 37.6523C15.3398 42.7057 16.6806 47.6908 19.3248 52.4686C21.2943 56.0273 23.9395 59.3977 27.2001 62.5125C26.6407 63.131 26.2969 63.948 26.2969 64.8457V81.8789C26.2969 82.7043 26.9657 83.373 27.791 83.373C28.6164 83.373 29.2852 82.7043 29.2852 81.8789V64.8457C29.2852 64.571 29.5085 64.3477 29.7832 64.3477H43.0723C43.0743 64.3477 43.0763 64.3481 43.0783 64.3481C43.0803 64.3481 43.0824 64.3477 43.0844 64.3477H72.416C72.6907 64.3477 72.9141 64.571 72.9141 64.8457V92.0391H29.2852V88.8516C29.2852 88.0262 28.6164 87.3574 27.791 87.3574C26.9657 87.3574 26.2969 88.0262 26.2969 88.8516V92.2196C23.9495 92.8379 22.2129 94.9787 22.2129 97.5176V98.5137C22.2129 100.436 23.777 102 25.6992 102H76.5C78.4223 102 79.9863 100.436 79.9863 98.5137V97.5176C79.9863 94.9785 78.2497 92.8379 75.9023 92.2196ZM73.7711 59.5023C73.0987 60.191 72.4493 60.8109 71.8447 61.3594H61.4012C61.3899 61.3329 61.3795 61.306 61.3666 61.2799C60.3699 59.2753 60.5055 56.8995 61.7293 54.924C62.9587 52.9398 65.033 51.7552 67.2782 51.7552C68.2629 51.7552 69.2094 51.967 70.0921 52.3848C72.3885 53.4703 73.8725 55.8125 73.8725 58.3514C73.8725 58.7375 73.8382 59.1231 73.7711 59.5023ZM60.1589 43.1659C62.1463 42.2772 64.4742 42.4862 66.3881 43.7263C68.2527 44.9348 69.3827 46.9013 69.4421 49.0132C65.5703 48.088 61.4584 49.7776 59.2929 53.1942C58.4948 52.2563 57.5362 51.4612 56.4672 50.8516C55.6759 47.8806 57.2784 44.4547 60.1589 43.1659ZM53.2803 49.6728C49.9184 49.011 46.3893 50.1683 43.9913 52.531C43.6873 52.0973 43.351 51.6865 42.9844 51.3042C44.8047 49.313 45.7219 46.4632 45.3816 43.6785C46.2881 43.2277 47.2854 42.9892 48.3107 42.9892C50.5681 42.9892 52.6356 44.1317 53.8466 46.0046C53.4255 47.1758 53.2255 48.4235 53.2803 49.6728ZM45.3958 55.4501C47.0272 53.2908 49.7941 52.1407 52.4868 52.5625C54.8001 52.9243 56.8499 54.4084 57.9296 56.4735C57.5816 58.0974 57.6617 59.777 58.181 61.3594H45.3567C45.9323 59.4475 45.9522 57.3692 45.3958 55.4501ZM60.6621 29.0441C64.298 29.0441 67.2563 32.0033 67.2563 35.6402C67.2563 37.284 66.6415 38.8596 65.5485 40.0669C64.0634 39.6067 62.5043 39.5128 60.9974 39.7973C60.6858 37.4242 59.4776 35.2346 57.571 33.6598C56.8015 33.0241 55.9536 32.5219 55.0605 32.1547C56.245 30.249 58.3448 29.0441 60.6621 29.0441ZM50.2551 34.5403C52.1585 34.1746 54.1307 34.6937 55.6679 35.9636C57.17 37.2045 58.045 38.9873 58.088 40.8739C57.0527 41.4726 56.1574 42.2573 55.4296 43.1673C53.6373 41.1747 51.0709 40.0013 48.3105 40.0013C47.1403 40.0013 45.9944 40.2133 44.9179 40.6215C45.0962 37.6511 47.3236 35.1035 50.2551 34.5403ZM30.9343 40.6709C33.0044 38.2143 36.8563 37.5918 39.521 39.2837C41.2803 40.4006 42.3782 42.3744 42.4575 44.5634C42.5252 46.4297 41.8483 48.1936 40.6193 49.4565C39.7125 48.9367 38.7291 48.551 37.7031 48.3335C35.4655 47.8593 33.088 48.1898 31.0393 49.1909C30.129 48.1615 29.5708 46.863 29.4449 45.4472C29.2887 43.6925 29.8177 41.9961 30.9343 40.6709ZM30.6759 53.0075C32.374 51.45 34.8292 50.7793 37.0834 51.2568C39.3373 51.7347 41.3094 53.3442 42.2292 55.4567C43.0402 57.3188 43.0069 59.5124 42.1758 61.3594H30.3544C29.6848 60.7581 29.0409 60.1467 28.4239 59.525C28.0432 57.1549 28.9017 54.6351 30.6759 53.0075ZM76.998 98.5137C76.998 98.7884 76.7747 99.0117 76.5 99.0117H25.6992C25.4245 99.0117 25.2012 98.7884 25.2012 98.5137V97.5176C25.2012 96.1444 26.3182 95.0273 27.6914 95.0273H74.5078C75.881 95.0273 76.998 96.1444 76.998 97.5176V98.5137Z" fill="black"/>
<path d="M44.127 73.7109H48.6094C49.4347 73.7109 50.1035 73.0422 50.1035 72.2168C50.1035 71.3914 49.4347 70.7227 48.6094 70.7227H44.127C42.2047 70.7227 40.6406 72.2867 40.6406 74.209V77.1973C40.6406 82.9642 45.3326 87.6562 51.0996 87.6562C56.8666 87.6562 61.5586 82.9642 61.5586 77.1973V74.209C61.5586 72.2867 59.9945 70.7227 58.0723 70.7227H55.582C54.7567 70.7227 54.0879 71.3914 54.0879 72.2168C54.0879 73.0422 54.7567 73.7109 55.582 73.7109H58.0723C58.347 73.7109 58.5703 73.9343 58.5703 74.209V77.1973C58.5703 81.3167 55.2191 84.668 51.0996 84.668C46.9802 84.668 43.6289 81.3167 43.6289 77.1973V74.209C43.6289 73.9343 43.8522 73.7109 44.127 73.7109Z" fill="black"/>
</g>
<defs>
<clipPath id="clip0">
<rect width="102" height="102" fill="white"/>
</clipPath>
</defs>
</svg>
