<svg width="57" height="43" viewBox="0 0 57 43" fill="none" xmlns="http://www.w3.org/2000/svg">
<path d="M34.2162 8.25595C34.0892 7.46751 33.7816 6.71919 33.3175 6.06945C31.4134 3.50325 27.7894 2.96665 25.2233 4.87074C24.7671 5.20927 24.3631 5.61323 24.0246 6.06945C23.5605 6.71919 23.2529 7.46751 23.1259 8.25595C23.0674 8.76805 23.4351 9.23057 23.947 9.28912C24.4327 9.34465 24.8787 9.01605 24.9698 8.53591C25.0529 8.03688 25.2496 7.56374 25.5447 7.1529C26.8504 5.42635 29.3084 5.08503 31.035 6.3907C31.3229 6.60849 31.5794 6.86489 31.7972 7.1529C32.0928 7.56479 32.2896 8.03933 32.372 8.53964C32.442 8.99446 32.8329 9.33042 33.2931 9.331C33.3409 9.331 33.3886 9.32727 33.4359 9.3198C33.9451 9.2413 34.2943 8.76513 34.2162 8.25595Z" fill="#CC1433"/>
<path d="M28.6709 9.33081C26.6094 9.33081 24.9381 11.0021 24.9381 13.0636C24.9381 15.1252 26.6094 16.7965 28.6709 16.7965C30.7325 16.7965 32.4038 15.1252 32.4038 13.0636C32.4038 11.0021 30.7325 9.33081 28.6709 9.33081ZM28.6709 14.93C27.6401 14.93 26.8045 14.0945 26.8045 13.0636C26.8045 12.0328 27.6401 11.1972 28.6709 11.1972C29.7018 11.1972 30.5373 12.0328 30.5373 13.0636C30.5373 14.0945 29.7017 14.93 28.6709 14.93Z" fill="#CC1433"/>
<path d="M46.4018 16.7965C44.8556 16.7965 43.6022 15.5431 43.6022 13.9969C43.6022 13.4816 43.1844 13.0637 42.669 13.0637C42.1537 13.0637 41.7358 13.4816 41.7358 13.9969C41.7358 15.5431 40.4824 16.7965 38.9362 16.7965C38.4208 16.7965 38.003 17.2144 38.003 17.7297C38.003 18.2451 38.4208 18.663 38.9362 18.663C40.4824 18.663 41.7358 19.9164 41.7358 21.4626C41.7358 21.9779 42.1537 22.3958 42.669 22.3958C43.1844 22.3958 43.6022 21.9779 43.6022 21.4626C43.6022 19.9164 44.8556 18.663 46.4018 18.663C46.9172 18.663 47.335 18.2451 47.335 17.7297C47.335 17.2144 46.9172 16.7965 46.4018 16.7965ZM42.669 18.663C42.4033 18.3096 42.0891 17.9955 41.7358 17.7297C42.0891 17.464 42.4033 17.1499 42.669 16.7965C42.9348 17.1499 43.2489 17.464 43.6022 17.7297C43.2489 17.9955 42.9348 18.3096 42.669 18.663Z" fill="#CC1433"/>
<path d="M16.5393 7.46451C14.9931 7.46451 13.7397 6.2111 13.7397 4.6649C13.7397 4.14953 13.3218 3.73169 12.8065 3.73169C12.2911 3.73169 11.8733 4.14953 11.8733 4.6649C11.8733 6.2111 10.6199 7.46451 9.07365 7.46451C8.55828 7.46451 8.14044 7.88236 8.14044 8.39772C8.14044 8.91308 8.55828 9.33092 9.07365 9.33092C10.6199 9.33092 11.8733 10.5843 11.8733 12.1305C11.8733 12.6459 12.2911 13.0637 12.8065 13.0637C13.3218 13.0637 13.7397 12.6459 13.7397 12.1305C13.7397 10.5843 14.9931 9.33092 16.5393 9.33092C17.0547 9.33092 17.4725 8.91308 17.4725 8.39772C17.4725 7.88236 17.0547 7.46451 16.5393 7.46451ZM12.8065 9.33092C12.5407 8.97759 12.2266 8.66345 11.8733 8.39772C12.2266 8.13199 12.5407 7.81785 12.8065 7.46451C13.0722 7.81785 13.3863 8.13199 13.7397 8.39772C13.3863 8.66345 13.0722 8.97759 12.8065 9.33092Z" fill="#CC1433"/>
<path d="M56.5887 41.6198L50.0562 26.6885C49.9079 26.3485 49.5724 26.1288 49.2014 26.1285H32.5698L37.5158 11.8617C38.4559 9.18001 38.0237 6.20798 36.3586 3.90518C33.2581 -0.340091 27.3031 -1.26805 23.0577 1.83253C22.2639 2.41228 21.5648 3.11149 20.985 3.90518C19.3199 6.20798 18.8877 9.18001 19.8278 11.8617L24.772 26.1285H8.14037C7.76942 26.1288 7.43393 26.3485 7.28555 26.6885L0.753112 41.6198C0.54699 42.0921 0.762794 42.6422 1.23511 42.8483C1.3527 42.8997 1.47961 42.9261 1.60793 42.9262H55.7339C56.2492 42.926 56.6668 42.5079 56.6666 41.9926C56.6665 41.8643 56.64 41.7373 56.5887 41.6198ZM21.5916 11.2504C20.8505 9.13941 21.1919 6.79905 22.5052 4.9877C25.0083 1.58243 29.798 0.851146 33.2032 3.35435C33.8272 3.81302 34.3779 4.36373 34.8366 4.9877C36.1498 6.79905 36.4913 9.13941 35.7502 11.2504L28.6709 31.6774L21.5916 11.2504ZM30.6306 31.7278H46.1498L48.5995 37.327H8.74322L11.1929 31.7278H26.7112L27.7881 34.8335C27.9566 35.3205 28.4881 35.5788 28.9752 35.4101C29.2458 35.3164 29.4583 35.1039 29.5518 34.8335L30.6306 31.7278ZM3.0348 41.0598L8.75069 27.995H25.4187L26.0654 29.8614H10.5816C10.2108 29.8616 9.8752 30.0814 9.72682 30.4213L6.4606 37.8869C6.25448 38.3593 6.47028 38.9094 6.9426 39.1155C7.06018 39.1668 7.1871 39.1933 7.31542 39.1934H50.0264C50.5417 39.1932 50.9594 38.7751 50.9591 38.2598C50.959 38.1314 50.9325 38.0045 50.8812 37.8869L47.615 30.4213C47.4666 30.0814 47.131 29.8616 46.7602 29.8614H31.2764L31.9231 27.995H48.5911L54.307 41.0598H3.0348Z" fill="#CC1433"/>
<path d="M7.33331 38.0001L10.6666 30.6667H27.3333L28.6666 34.0001L30.6666 30.6667H46L49.3333 38.0001H7.33331Z" fill="#CC1433"/>
</svg>
