<svg width="57" height="44" viewBox="0 0 57 44" fill="none" xmlns="http://www.w3.org/2000/svg">
<path d="M34.216 9.08896C34.0891 8.30052 33.7815 7.5522 33.3174 6.90246C31.4133 4.33626 27.7893 3.79966 25.2232 5.70375C24.767 6.04227 24.363 6.44623 24.0245 6.90246C23.5603 7.5522 23.2527 8.30052 23.1258 9.08896C23.0673 9.60105 23.4349 10.0636 23.9469 10.1221C24.4325 10.1777 24.8786 9.84905 24.9697 9.36892C25.0528 8.86989 25.2494 8.39675 25.5446 7.98591C26.8502 6.25936 29.3083 5.91804 31.0349 7.22371C31.3227 7.4415 31.5793 7.6979 31.797 7.98591C32.0926 8.3978 32.2894 8.87234 32.3719 9.37265C32.4419 9.82747 32.8328 10.1634 33.293 10.164C33.3408 10.164 33.3885 10.1603 33.4358 10.1528C33.9449 10.0743 34.2942 9.59814 34.216 9.08896Z" fill="white"/>
<path d="M28.6708 10.1639C26.6092 10.1639 24.938 11.8352 24.938 13.8968C24.938 15.9583 26.6092 17.6296 28.6708 17.6296C30.7324 17.6296 32.4036 15.9583 32.4036 13.8968C32.4036 11.8352 30.7324 10.1639 28.6708 10.1639ZM28.6708 15.7632C27.64 15.7632 26.8044 14.9276 26.8044 13.8968C26.8044 12.8659 27.64 12.0304 28.6708 12.0304C29.7017 12.0304 30.5372 12.8659 30.5372 13.8968C30.5372 14.9276 29.7015 15.7632 28.6708 15.7632Z" fill="white"/>
<path d="M46.4017 17.6296C44.8555 17.6296 43.6021 16.3762 43.6021 14.83C43.6021 14.3146 43.1843 13.8968 42.6689 13.8968C42.1535 13.8968 41.7357 14.3146 41.7357 14.83C41.7357 16.3762 40.4823 17.6296 38.9361 17.6296C38.4207 17.6296 38.0029 18.0475 38.0029 18.5628C38.0029 19.0782 38.4207 19.496 38.9361 19.496C40.4823 19.496 41.7357 20.7494 41.7357 22.2956C41.7357 22.811 42.1535 23.2288 42.6689 23.2288C43.1843 23.2288 43.6021 22.811 43.6021 22.2956C43.6021 20.7494 44.8555 19.496 46.4017 19.496C46.9171 19.496 47.3349 19.0782 47.3349 18.5628C47.3349 18.0475 46.9171 17.6296 46.4017 17.6296ZM42.6689 19.496C42.4032 19.1427 42.089 18.8285 41.7357 18.5628C42.089 18.2971 42.4032 17.9829 42.6689 17.6296C42.9346 17.9829 43.2488 18.2971 43.6021 18.5628C43.2488 18.8285 42.9346 19.1427 42.6689 19.496Z" fill="white"/>
<path d="M16.5392 8.29752C14.993 8.29752 13.7396 7.04411 13.7396 5.4979C13.7396 4.98254 13.3217 4.5647 12.8063 4.5647C12.291 4.5647 11.8731 4.98254 11.8731 5.4979C11.8731 7.04411 10.6197 8.29752 9.07353 8.29752C8.55816 8.29752 8.14032 8.71536 8.14032 9.23073C8.14032 9.74609 8.55816 10.1639 9.07353 10.1639C10.6197 10.1639 11.8731 11.4173 11.8731 12.9636C11.8731 13.4789 12.291 13.8968 12.8063 13.8968C13.3217 13.8968 13.7396 13.4789 13.7396 12.9636C13.7396 11.4173 14.993 10.1639 16.5392 10.1639C17.0545 10.1639 17.4724 9.74609 17.4724 9.23073C17.4724 8.71536 17.0545 8.29752 16.5392 8.29752ZM12.8063 10.1639C12.5406 9.8106 12.2265 9.49646 11.8731 9.23073C12.2265 8.965 12.5406 8.65086 12.8063 8.29752C13.0721 8.65086 13.3862 8.965 13.7396 9.23073C13.3862 9.49646 13.0721 9.8106 12.8063 10.1639Z" fill="white"/>
<path d="M56.5886 42.4528L50.0561 27.5215C49.9077 27.1816 49.5723 26.9618 49.2013 26.9616H32.5697L37.5157 12.6948C38.4558 10.0131 38.0236 7.04105 36.3585 4.73825C33.2579 0.492978 27.3029 -0.434979 23.0575 2.6656C22.2637 3.24535 21.5646 3.94456 20.9849 4.73825C19.3198 7.04105 18.8876 10.0131 19.8277 12.6948L24.7718 26.9616H8.14025C7.7693 26.9618 7.43381 27.1816 7.28543 27.5215L0.75299 42.4528C0.546868 42.9251 0.762672 43.4753 1.23499 43.6814C1.35257 43.7327 1.47949 43.7592 1.60781 43.7593H55.7337C56.2491 43.7591 56.6667 43.341 56.6665 42.8256C56.6664 42.6973 56.6399 42.5704 56.5886 42.4528ZM21.5915 12.0835C20.8504 9.97248 21.1918 7.63212 22.5051 5.82077C25.0082 2.4155 29.7979 1.68421 33.2031 4.18742C33.8271 4.64609 34.3778 5.1968 34.8365 5.82077C36.1497 7.63212 36.4912 9.97248 35.7501 12.0835L28.6708 32.5105L21.5915 12.0835ZM30.6305 32.5608H46.1497L48.5994 38.1601H8.7431L11.1928 32.5608H26.711L27.788 35.6666C27.9565 36.1536 28.488 36.4118 28.9751 36.2432C29.2456 36.1495 29.4582 35.937 29.5517 35.6666L30.6305 32.5608ZM3.03468 41.8929L8.75056 28.828H25.4186L26.0653 30.6944H10.5815C10.2107 30.6947 9.87508 30.9144 9.7267 31.2544L6.46048 38.72C6.25435 39.1923 6.47016 39.7424 6.94248 39.9486C7.06006 39.9999 7.18698 40.0264 7.31529 40.0265H50.0263C50.5416 40.0263 50.9592 39.6082 50.959 39.0928C50.9589 38.9645 50.9324 38.8376 50.8811 38.72L47.6149 31.2544C47.4665 30.9144 47.1309 30.6947 46.76 30.6944H31.2763L31.923 28.828H48.591L54.3069 41.8929H3.03468Z" fill="white"/>
<path d="M7.33316 38.8332L10.6665 31.4999H27.3332L28.6665 34.8332L30.6665 31.4999H45.9998L49.3332 38.8332H7.33316Z" fill="white"/>
</svg>
