<svg width="103" height="103" viewBox="0 0 103 103" fill="none" xmlns="http://www.w3.org/2000/svg">
<path d="M86.9062 100.988H16.0938C13.8716 100.988 12.0703 99.187 12.0703 96.9648V6.03516C12.0703 3.81301 13.8716 2.01172 16.0938 2.01172H86.9062C89.1284 2.01172 90.9297 3.81301 90.9297 6.03516V96.9648C90.9297 99.187 89.1284 100.988 86.9062 100.988Z" fill="#CC1433"/>
<path d="M21.7266 11.668H65.1797V76.043H21.7266V11.668Z" fill="white"/>
<path d="M57.8369 92.9414H29.0693C26.6251 92.9414 24.6436 90.9599 24.6436 88.5156C24.6436 86.0714 26.6251 84.0898 29.0693 84.0898H57.8369C60.2812 84.0898 62.2627 86.0714 62.2627 88.5156C62.2627 90.9599 60.2812 92.9414 57.8369 92.9414Z" fill="#B2E5FB"/>
<path d="M30.5615 51.9023H38.6083V59.9492H30.5615V51.9023Z" fill="#CC1433"/>
<path d="M48.2812 51.9023H56.3281V59.9492H48.2812V51.9023Z" fill="#CC1433"/>
<path d="M30.5615 67.9961H38.6083V76.043H30.5615V67.9961Z" fill="#DE5791"/>
<path d="M48.2812 67.9961H56.3281V76.043H48.2812V67.9961Z" fill="#DE5791"/>
<path d="M30.5615 35.8086H38.6083V43.8555H30.5615V35.8086Z" fill="#F8E837"/>
<path d="M48.2812 35.8086H56.3281V43.8555H48.2812V35.8086Z" fill="#F8E837"/>
<path d="M30.5615 19.7148H38.6083V27.7617H30.5615V19.7148Z" fill="#B2E5FB"/>
<path d="M48.2812 19.7148H56.3281V27.7617H48.2812V19.7148Z" fill="#B2E5FB"/>
<path d="M86.9062 0H16.0938C12.766 0 10.0586 2.70737 10.0586 6.03516V96.9648C10.0586 100.293 12.766 103 16.0938 103H86.9062C90.234 103 92.9414 100.293 92.9414 96.9648V69.0014C92.9414 67.8905 92.0408 66.9896 90.9297 66.9896C89.8186 66.9896 88.918 67.8905 88.918 69.0014V96.9648C88.918 98.0741 88.0155 98.9766 86.9062 98.9766H16.0938C14.9845 98.9766 14.082 98.0741 14.082 96.9648V6.03516C14.082 4.92589 14.9845 4.02344 16.0938 4.02344H86.9062C88.0155 4.02344 88.918 4.92589 88.918 6.03516V50.8959C88.918 52.0068 89.8186 52.9076 90.9297 52.9076C92.0408 52.9076 92.9414 52.0068 92.9414 50.8959V6.03516C92.9414 2.70737 90.234 0 86.9062 0Z" fill="black"/>
<path d="M67.1914 76.043V11.668C67.1914 10.5571 66.2908 9.65625 65.1797 9.65625H21.7266C20.6155 9.65625 19.7148 10.5571 19.7148 11.668V76.043C19.7148 77.1538 20.6155 78.0547 21.7266 78.0547H65.1797C66.2908 78.0547 67.1914 77.1538 67.1914 76.043ZM54.3164 57.9375H50.293V53.9141H54.3164V57.9375ZM56.3281 49.8906H48.2812C47.1702 49.8906 46.2695 50.7913 46.2695 51.9024V57.9375H40.6198V51.9024C40.6198 50.7913 39.7192 49.8906 38.6081 49.8906H30.5612C29.4502 49.8906 28.5495 50.7913 28.5495 51.9024V57.9375H23.7383V45.8672H63.168V57.9375H58.3398V51.9024C58.3398 50.7913 57.4392 49.8906 56.3281 49.8906ZM36.5964 57.9375H32.5729V53.9141H36.5964V57.9375ZM36.5964 25.75H32.5729V21.7266H36.5964V25.75ZM63.168 29.7734V41.8438H58.3398V35.8086C58.3398 34.6975 57.4392 33.7969 56.3281 33.7969H48.2812C47.1702 33.7969 46.2695 34.6975 46.2695 35.8086V41.8438H40.6198V35.8086C40.6198 34.6975 39.7192 33.7969 38.6081 33.7969H30.5612C29.4502 33.7969 28.5495 34.6975 28.5495 35.8086V41.8438H23.7383V29.7734H63.168ZM54.3164 25.75H50.293V21.7266H54.3164V25.75ZM54.3164 41.8438H50.293V37.8203H54.3164V41.8438ZM36.5964 41.8438H32.5729V37.8203H36.5964V41.8438ZM63.168 13.6797V25.75H58.3398V19.7148C58.3398 18.604 57.4392 17.7031 56.3281 17.7031H48.2812C47.1702 17.7031 46.2695 18.604 46.2695 19.7148V25.75H40.6198V19.7148C40.6198 18.604 39.7192 17.7031 38.6081 17.7031H30.5612C29.4502 17.7031 28.5495 18.604 28.5495 19.7148V25.75H23.7383V13.6797H63.168ZM32.5729 74.0313V70.0078H36.5964V74.0313H32.5729ZM50.293 74.0313V70.0078H54.3164V74.0313H50.293ZM58.3398 74.0313V67.9961C58.3398 66.8852 57.4392 65.9844 56.3281 65.9844H48.2812C47.1702 65.9844 46.2695 66.8852 46.2695 67.9961V74.0313H40.6198V67.9961C40.6198 66.8852 39.7192 65.9844 38.6081 65.9844H30.5612C29.4502 65.9844 28.5495 66.8852 28.5495 67.9961V74.0313H23.7383V61.9609H63.168V74.0313H58.3398Z" fill="black"/>
<path d="M82.8828 19.3125H73.2265C72.1154 19.3125 71.2148 20.2133 71.2148 21.3242C71.2148 22.4351 72.1154 23.3359 73.2265 23.3359H82.8828C83.9938 23.3359 84.8945 22.4351 84.8945 21.3242C84.8945 20.2133 83.9938 19.3125 82.8828 19.3125Z" fill="black"/>
<path d="M82.8828 28.9688H73.2265C72.1154 28.9688 71.2148 29.8694 71.2148 30.9805C71.2148 32.0915 72.1154 32.9922 73.2265 32.9922H82.8828C83.9938 32.9922 84.8945 32.0915 84.8945 30.9805C84.8945 29.8694 83.9938 28.9688 82.8828 28.9688Z" fill="black"/>
<path d="M82.8828 38.625H73.2265C72.1154 38.625 71.2148 39.5256 71.2148 40.6367C71.2148 41.7478 72.1154 42.6484 73.2265 42.6484H82.8828C83.9938 42.6484 84.8945 41.7478 84.8945 40.6367C84.8945 39.5256 83.9938 38.625 82.8828 38.625Z" fill="black"/>
<path d="M90.9297 57.9375C90.4006 57.9375 89.8816 58.1525 89.5074 58.5269C89.1332 58.9011 88.918 59.4201 88.918 59.9492C88.918 60.4783 89.1332 60.9973 89.5074 61.3713C89.8816 61.7454 90.4006 61.9609 90.9297 61.9609C91.4588 61.9609 91.9778 61.7456 92.352 61.3713C92.7262 60.9973 92.9414 60.4783 92.9414 59.9492C92.9414 59.4201 92.7262 58.9011 92.352 58.5269C91.9778 58.1525 91.4588 57.9375 90.9297 57.9375Z" fill="black"/>
<path d="M29.0693 82.0781C25.5197 82.0781 22.6318 84.966 22.6318 88.5156C22.6318 92.0653 25.5197 94.9531 29.0693 94.9531H57.8369C61.3866 94.9531 64.2744 92.0653 64.2744 88.5156C64.2744 84.966 61.3866 82.0781 57.8369 82.0781H29.0693ZM60.251 88.5156C60.251 89.8468 59.1681 90.9297 57.8369 90.9297H29.0693C27.7382 90.9297 26.6553 89.8468 26.6553 88.5156C26.6553 87.1845 27.7382 86.1016 29.0693 86.1016H57.8369C59.1681 86.1016 60.251 87.1845 60.251 88.5156Z" fill="black"/>
</svg>
